<?xml version="1.0" encoding="UTF-8" standalone="no"?>
<!DOCTYPE svg PUBLIC "-//W3C//DTD SVG 1.1//EN" "http://www.w3.org/Graphics/SVG/1.1/DTD/svg11.dtd">
<svg width="100%" height="100%" viewBox="0 0 324 138" version="1.1" xmlns="http://www.w3.org/2000/svg" xmlns:xlink="http://www.w3.org/1999/xlink" xml:space="preserve" xmlns:serif="http://www.serif.com/" style="fill-rule:evenodd;clip-rule:evenodd;stroke-linejoin:round;stroke-miterlimit:2;">
    <g id="g1">
        <path id="path801" d="M0.211,116.047C0.194,115.782 0.067,100.135 0.24,68.25L0.5,20.5L10.25,19.467L20,18.434C19.954,18.479 20.004,18.421 20.54,23C20.574,23.295 22.965,22.038 25.27,20.862C28.36,19.286 31.228,18.735 36.184,18.766C39.882,18.789 45.142,19.551 47.874,20.458C50.606,21.366 54.943,23.959 57.513,26.22C60.083,28.482 63.24,32.004 64.53,34.048C65.82,36.091 67.633,40.371 68.56,43.559C69.692,47.453 70.083,51.378 69.751,55.517C69.457,59.171 68.123,64.204 66.473,67.881C64.591,72.074 61.97,75.655 58.38,78.935C55.368,81.689 51.032,84.483 48.357,85.394C45.654,86.315 40.398,87 36.033,87C30.397,87 27.405,86.481 24.5,85C22.342,83.9 20.461,83 20.318,83C20.176,83 19.934,88.649 19.78,95.553L19.5,108.105L10.758,112.053C5.95,114.224 0.246,116.605 0.211,116.047ZM35.282,70.998C37.362,70.999 40.512,70.38 42.282,69.623C44.052,68.866 46.711,66.953 48.191,65.373C49.671,63.793 51.452,60.362 52.148,57.75C53.162,53.948 53.167,52.073 52.173,48.355C51.489,45.801 50.055,42.481 48.985,40.979C47.915,39.476 45.413,37.475 43.425,36.532C41.437,35.588 37.941,34.79 35.655,34.757C33.295,34.723 29.723,35.605 27.388,36.798C24.695,38.175 22.675,40.165 21.537,42.564C20.22,45.338 19.885,48.124 20.154,54.046C20.423,59.981 21.007,62.544 22.575,64.682C23.712,66.232 26.185,68.287 28.071,69.248C29.957,70.21 33.202,70.998 35.282,70.998ZM212.091,88.884C205.254,88.906 198.5,87.53 192.975,83.325C186.839,78.162 191.109,72.265 194.884,73.463C195.973,73.809 198.004,76.037 199.398,78.416C200.898,80.976 203.333,83.405 205.367,84.37C207.256,85.266 210.482,86 212.535,86C214.588,86 217.985,85.485 220.084,84.857C224.035,83.669 226.064,82.581 229.5,77.869C233.173,72.215 230.589,67.268 226.564,63.067C224.765,61.189 220.504,58.828 215.564,56.971C211.129,55.304 205.327,52.96 202.671,51.762C200.015,50.564 196.55,48.112 194.97,46.313C190.676,41.422 190.834,35.7 191.475,32.282C193.236,25.325 199.671,20.519 206.383,19.023C209.886,18.296 214.539,18.079 217.883,18.487C220.972,18.863 225.375,19.99 227.666,20.992C229.957,21.993 232.582,23.958 233.499,25.357C234.492,26.873 234.903,28.73 234.516,29.951C234.096,31.273 233.006,32 231.445,32C229.705,32 228.308,30.865 226.475,27.961C223.732,23.615 220.833,22.128 214.742,21.266C212.409,20.936 209.285,21.383 206.503,22.446C201.492,24.274 198.172,27.752 198,33.185C198,39.144 200.5,42.414 205.671,45.176C208.327,46.594 213.474,48.725 217.109,49.912C220.743,51.098 225.807,53.394 228.361,55.014C241.725,63.49 235.981,76.077 235.023,77.956C233.689,80.57 230.706,85.08 222.269,87.62C219.746,88.379 212.091,88.884 212.091,88.884ZM95.962,87.994C91.16,87.999 88.241,87.403 84.97,85.75C82.52,84.513 79.5,81.971 78.258,80.102C76.683,77.732 76,75.221 76,71.802C76,69.106 76.652,65.64 77.449,64.099C78.246,62.558 80.459,59.926 82.367,58.251C84.275,56.576 88.43,54.234 91.601,53.048C94.772,51.862 102.272,50.378 108.267,49.751L119.167,48.612L118.5,27.156C118.437,25.29 113.176,22.105 109.242,21.409C100.633,20.118 94.373,22.711 90.014,28.252C93.981,32.497 97.707,36.019 93.927,41.365C92.443,43.253 90.927,44 88.582,44C84.137,44 82.356,40.869 81.663,37.939C81.329,36.531 81.503,33.762 82.048,31.788C82.617,29.728 84.713,26.685 86.963,24.652C97.573,15.067 117.304,19.905 121.277,21.858C123.905,23.148 127.28,25.81 128.777,27.772C134.303,34.306 131.678,47.737 131.772,56.42L132.044,81.5L134.018,83.157C135.106,84.07 136.893,84.579 137.996,84.291C139.348,83.937 140,84.258 140,85.276C140,86.107 139.288,87.059 138.418,87.393C137.548,87.727 135.059,88 132.886,88C130.713,88 127.365,87.344 125.445,86.542C123.525,85.739 121.207,83.781 120.293,82.189L118.632,79.294L114.293,82.606C111.906,84.428 108.276,86.385 106.226,86.954C104.177,87.523 99.558,87.991 95.962,87.994ZM101.755,84C104.125,84 107.512,83.38 109.282,82.623C111.052,81.866 113.85,79.813 115.5,78.06L118.5,74.874L119.179,51.74L110.817,52.179C105.333,52.467 101.087,53.286 98.478,54.559C95.677,55.925 93.834,57.821 92.25,60.962C90.952,63.535 90,67.252 90,69.744C90,72.12 90.627,75.566 91.394,77.401C92.161,79.237 93.836,81.472 95.117,82.369C96.397,83.266 99.384,84 101.755,84ZM164.864,87.999C160.439,87.999 157.223,87.366 154.311,85.925C152.006,84.784 149.58,83.199 148.918,82.401C148.256,81.604 147.413,80.787 148.266,80.401C148.99,80.073 150.721,81.11 153.048,82.65C154.793,83.805 165.808,89.332 174,83.817C175.925,82.521 178.287,79.894 179.248,77.98C180.21,76.066 180.998,73.108 180.998,71.407C180.999,69.706 179.954,66.331 178.676,63.907C176.924,60.585 173.789,57.646 165.94,51.968C158.934,46.899 154.792,43.138 153.28,40.468C151.881,37.998 151.028,34.802 151.02,32C151.012,29.277 151.778,26.236 152.96,24.299C154.033,22.538 156.259,20.4 157.906,19.549C159.553,18.697 163.224,18 166.064,18C169.52,18 172.513,18.722 175.114,20.184C177.251,21.385 178.836,22.7 179,23.017C179.299,23.595 179.26,24.313 178.419,24.248C177.968,24.213 176.236,23.743 174.279,22.415C171.848,20.765 169.324,20 166.311,20C163.885,20 160.581,20.683 158.967,21.517C157.354,22.351 155.351,24.354 154.517,25.967C153.683,27.581 153,30.318 153,32.049C153,33.781 153.737,36.75 154.637,38.647C155.699,40.884 159.089,44.1 164.286,47.798C168.692,50.934 173.876,54.846 175.806,56.491C177.735,58.137 180.133,61.287 181.135,63.491C182.137,65.696 182.966,69.27 182.978,71.434C182.99,73.598 182.1,77.228 181,79.5C179.725,82.133 177.59,84.424 175.114,85.816C172.249,87.426 169.555,88 164.864,87.999ZM315.5,88C313.573,88 311.589,87.203 310.488,85.987C309.486,84.88 308.667,82.56 308.667,80.831C308.667,78.767 309.448,77.055 310.944,75.844C312.197,74.83 314.247,74 315.5,74C316.753,74 318.803,74.83 320.056,75.844C321.552,77.055 322.333,78.767 322.333,80.831C322.333,82.56 321.514,84.88 320.512,85.987C319.411,87.203 317.427,88 315.5,88ZM280.73,86.956C276.753,86.932 271.817,86.311 269.759,85.577C263.518,83.532 257.311,78.417 256.5,71.5L256.161,51.25L255.822,31L243,31L243,19.095C243,19.095 251.126,19.11 255.633,19.03C255.675,12.684 255.878,6.343 256.075,0L269,0L269,19L296,19L296,31L269,31L269,49.55C269,63.815 269.336,68.748 270.453,70.909C271.201,72.356 275.98,78.678 287.469,75.552C290.47,74.68 293.618,73.7 294.463,73.376L296,72.786L296,83.783C291.184,86.112 286.053,86.912 280.73,86.956Z" style="fill:white;fill-rule:nonzero;"/>
        <g transform="matrix(1.19424,0,0,1.20229,103.307,135.552)">
            <g id="text1">
                <g transform="matrix(17.3333,0,0,17.3333,0,0)">
                    <path d="M0.301,0.007C0.267,0.007 0.234,0.004 0.204,-0.002C0.173,-0.009 0.145,-0.019 0.118,-0.032C0.092,-0.045 0.067,-0.061 0.044,-0.081L0.086,-0.136C0.116,-0.11 0.149,-0.091 0.185,-0.078C0.22,-0.065 0.259,-0.058 0.301,-0.058C0.362,-0.058 0.41,-0.07 0.443,-0.094C0.476,-0.118 0.493,-0.152 0.493,-0.196L0.493,-0.196C0.493,-0.226 0.485,-0.249 0.468,-0.265C0.452,-0.281 0.431,-0.293 0.405,-0.301C0.378,-0.309 0.35,-0.316 0.319,-0.322C0.291,-0.327 0.263,-0.333 0.234,-0.34C0.206,-0.347 0.18,-0.356 0.156,-0.368C0.132,-0.381 0.113,-0.398 0.099,-0.42C0.085,-0.442 0.078,-0.472 0.078,-0.509L0.078,-0.509C0.078,-0.575 0.1,-0.627 0.144,-0.663C0.188,-0.699 0.25,-0.717 0.33,-0.717C0.367,-0.717 0.404,-0.711 0.441,-0.699C0.477,-0.687 0.513,-0.668 0.548,-0.643L0.506,-0.588C0.476,-0.609 0.446,-0.625 0.417,-0.636C0.387,-0.647 0.358,-0.652 0.33,-0.652C0.272,-0.652 0.227,-0.64 0.195,-0.615C0.163,-0.591 0.147,-0.557 0.147,-0.512L0.147,-0.512C0.147,-0.482 0.156,-0.46 0.174,-0.445C0.192,-0.43 0.216,-0.418 0.244,-0.41C0.273,-0.402 0.304,-0.395 0.336,-0.389C0.363,-0.383 0.39,-0.377 0.417,-0.369C0.444,-0.362 0.468,-0.351 0.49,-0.338C0.512,-0.325 0.529,-0.308 0.542,-0.285C0.556,-0.263 0.562,-0.234 0.562,-0.199L0.562,-0.198C0.562,-0.133 0.539,-0.082 0.494,-0.046C0.448,-0.011 0.384,0.007 0.301,0.007Z" style="fill:rgb(30,30,30);fill-rule:nonzero;"/>
                </g>
                <g transform="matrix(17.3333,0,0,17.3333,10.6725,0)">
                    <path d="M0.206,-0L0.206,-0.681L0.276,-0.681L0.276,-0L0.206,-0ZM-0.01,-0.645L-0.01,-0.71L0.491,-0.71L0.491,-0.645L-0.01,-0.645Z" style="fill:rgb(30,30,30);fill-rule:nonzero;"/>
                </g>
                <g transform="matrix(17.3333,0,0,17.3333,19.3561,0)">
                    <rect x="0.103" y="-0.71" width="0.07" height="0.71" style="fill:rgb(30,30,30);fill-rule:nonzero;"/>
                </g>
                <g transform="matrix(17.3333,0,0,17.3333,24.1295,0)">
                    <path d="M0.088,-0L0.088,-0.71L0.158,-0.71L0.158,-0L0.088,-0ZM0.138,-0L0.138,-0.065L0.544,-0.065L0.544,-0L0.138,-0Z" style="fill:rgb(30,30,30);fill-rule:nonzero;"/>
                </g>
                <g transform="matrix(17.3333,0,0,17.3333,34.0657,0)">
                    <rect x="0.073" y="-0.08" width="0.08" height="0.08" style="fill:rgb(30,30,30);fill-rule:nonzero;"/>
                </g>
                <g transform="matrix(17.3333,0,0,17.3333,42.6477,0)">
                    <path d="M0.088,-0L0.088,-0.71L0.158,-0.71L0.158,-0L0.088,-0ZM0.137,-0.313L0.137,-0.379L0.481,-0.379L0.481,-0.313L0.137,-0.313ZM0.137,-0.645L0.137,-0.71L0.535,-0.71L0.535,-0.645L0.137,-0.645Z" style="fill:rgb(30,30,30);fill-rule:nonzero;"/>
                </g>
                <g transform="matrix(17.3333,0,0,17.3333,51.4921,0)">
                    <path d="M0.02,-0L0.281,-0.71L0.366,-0.71L0.628,-0L0.55,-0L0.324,-0.636L0.098,-0L0.02,-0ZM0.14,-0.172L0.14,-0.238L0.514,-0.238L0.514,-0.172L0.14,-0.172Z" style="fill:rgb(30,30,30);fill-rule:nonzero;"/>
                </g>
                <g transform="matrix(17.3333,0,0,17.3333,62.7147,0)">
                    <path d="M0.131,-0.3L0.131,-0.366L0.374,-0.366C0.414,-0.366 0.446,-0.378 0.47,-0.404C0.494,-0.43 0.506,-0.463 0.506,-0.505C0.506,-0.547 0.494,-0.581 0.47,-0.607C0.446,-0.632 0.414,-0.645 0.374,-0.645L0.131,-0.645L0.131,-0.71L0.37,-0.71C0.411,-0.71 0.447,-0.702 0.478,-0.685C0.509,-0.668 0.533,-0.644 0.55,-0.613C0.567,-0.583 0.576,-0.547 0.576,-0.505C0.576,-0.464 0.567,-0.428 0.55,-0.398C0.533,-0.367 0.509,-0.343 0.478,-0.326C0.447,-0.309 0.411,-0.3 0.37,-0.3L0.131,-0.3ZM0.088,-0L0.088,-0.71L0.158,-0.71L0.158,-0L0.088,-0ZM0.521,-0L0.359,-0.322L0.424,-0.345L0.605,-0L0.521,-0Z" style="fill:rgb(30,30,30);fill-rule:nonzero;"/>
                </g>
                <g transform="matrix(17.3333,0,0,17.3333,74.0135,0)">
                    <path d="M0.146,-0L0.146,-0.065L0.341,-0.065C0.404,-0.065 0.449,-0.077 0.475,-0.101C0.501,-0.125 0.514,-0.156 0.514,-0.195L0.514,-0.197C0.514,-0.238 0.503,-0.27 0.48,-0.295C0.457,-0.319 0.419,-0.332 0.366,-0.332L0.146,-0.332L0.146,-0.397L0.366,-0.397C0.412,-0.397 0.447,-0.407 0.47,-0.428C0.493,-0.448 0.505,-0.479 0.505,-0.519C0.505,-0.561 0.492,-0.592 0.467,-0.613C0.441,-0.634 0.403,-0.645 0.352,-0.645L0.146,-0.645L0.146,-0.71L0.368,-0.71C0.438,-0.71 0.49,-0.693 0.524,-0.658C0.558,-0.623 0.575,-0.576 0.575,-0.518C0.575,-0.483 0.565,-0.451 0.544,-0.421C0.524,-0.391 0.491,-0.372 0.446,-0.364C0.49,-0.357 0.524,-0.338 0.548,-0.306C0.572,-0.273 0.584,-0.236 0.584,-0.195L0.584,-0.193C0.584,-0.135 0.566,-0.089 0.528,-0.053C0.491,-0.018 0.44,-0 0.376,-0L0.146,-0ZM0.088,-0L0.088,-0.71L0.158,-0.71L0.158,-0L0.088,-0Z" style="fill:rgb(30,30,30);fill-rule:nonzero;"/>
                </g>
                <g transform="matrix(17.3333,0,0,17.3333,85.2023,0)">
                    <path d="M0.088,-0L0.088,-0.71L0.158,-0.71L0.158,-0L0.088,-0ZM0.136,-0L0.136,-0.065L0.544,-0.065L0.544,-0L0.136,-0ZM0.136,-0.32L0.136,-0.385L0.49,-0.385L0.49,-0.32L0.136,-0.32ZM0.136,-0.645L0.136,-0.71L0.544,-0.71L0.544,-0.645L0.136,-0.645Z" style="fill:rgb(30,30,30);fill-rule:nonzero;"/>
                </g>
                <g transform="matrix(17.3333,0,0,17.3333,95.5617,0)">
                    <rect x="0.073" y="-0.08" width="0.08" height="0.08" style="fill:rgb(30,30,30);fill-rule:nonzero;"/>
                </g>
                <g transform="matrix(17.3333,0,0,17.3333,104.144,0)">
                    <path d="M0.02,-0L0.281,-0.71L0.366,-0.71L0.628,-0L0.55,-0L0.324,-0.636L0.098,-0L0.02,-0ZM0.14,-0.172L0.14,-0.238L0.514,-0.238L0.514,-0.172L0.14,-0.172Z" style="fill:rgb(30,30,30);fill-rule:nonzero;"/>
                </g>
                <g transform="matrix(17.3333,0,0,17.3333,114.689,0)">
                    <path d="M0.327,0.007C0.244,0.007 0.181,-0.014 0.14,-0.057C0.099,-0.101 0.078,-0.165 0.078,-0.252L0.078,-0.71L0.148,-0.71L0.148,-0.249C0.148,-0.186 0.163,-0.14 0.193,-0.109C0.222,-0.078 0.267,-0.062 0.327,-0.062C0.387,-0.062 0.432,-0.078 0.462,-0.109C0.492,-0.14 0.507,-0.186 0.507,-0.249L0.507,-0.71L0.577,-0.71L0.577,-0.252C0.577,-0.165 0.556,-0.101 0.515,-0.057C0.473,-0.014 0.411,0.007 0.327,0.007Z" style="fill:rgb(30,30,30);fill-rule:nonzero;"/>
                </g>
                <g transform="matrix(17.3333,0,0,17.3333,125.878,0)">
                    <path d="M0.088,-0L0.088,-0.71L0.158,-0.71L0.158,-0L0.088,-0ZM0.137,-0.313L0.137,-0.379L0.481,-0.379L0.481,-0.313L0.137,-0.313ZM0.137,-0.645L0.137,-0.71L0.535,-0.71L0.535,-0.645L0.137,-0.645Z" style="fill:rgb(30,30,30);fill-rule:nonzero;"/>
                </g>
                <g transform="matrix(17.3333,0,0,17.3333,136.5,0)">
                    <path d="M0.206,-0L0.206,-0.681L0.276,-0.681L0.276,-0L0.206,-0ZM-0.01,-0.645L-0.01,-0.71L0.491,-0.71L0.491,-0.645L-0.01,-0.645Z" style="fill:rgb(30,30,30);fill-rule:nonzero;"/>
                </g>
                <g transform="matrix(17.3333,0,0,17.3333,145.183,0)">
                    <path d="M0.131,-0.3L0.131,-0.366L0.374,-0.366C0.414,-0.366 0.446,-0.378 0.47,-0.404C0.494,-0.43 0.506,-0.463 0.506,-0.505C0.506,-0.547 0.494,-0.581 0.47,-0.607C0.446,-0.632 0.414,-0.645 0.374,-0.645L0.131,-0.645L0.131,-0.71L0.37,-0.71C0.411,-0.71 0.447,-0.702 0.478,-0.685C0.509,-0.668 0.533,-0.644 0.55,-0.613C0.567,-0.583 0.576,-0.547 0.576,-0.505C0.576,-0.464 0.567,-0.428 0.55,-0.398C0.533,-0.367 0.509,-0.343 0.478,-0.326C0.447,-0.309 0.411,-0.3 0.37,-0.3L0.131,-0.3ZM0.088,-0L0.088,-0.71L0.158,-0.71L0.158,-0L0.088,-0ZM0.521,-0L0.359,-0.322L0.424,-0.345L0.605,-0L0.521,-0Z" style="fill:rgb(30,30,30);fill-rule:nonzero;"/>
                </g>
                <g transform="matrix(17.3333,0,0,17.3333,156.482,0)">
                    <rect x="0.103" y="-0.71" width="0.07" height="0.71" style="fill:rgb(30,30,30);fill-rule:nonzero;"/>
                </g>
                <g transform="matrix(17.3333,0,0,17.3333,161.933,0)">
                    <path d="M0.206,-0L0.206,-0.681L0.276,-0.681L0.276,-0L0.206,-0ZM-0.01,-0.645L-0.01,-0.71L0.491,-0.71L0.491,-0.645L-0.01,-0.645Z" style="fill:rgb(30,30,30);fill-rule:nonzero;"/>
                </g>
                <g transform="matrix(17.3333,0,0,17.3333,171.547,0)">
                    <path d="M0.206,-0L0.206,-0.681L0.276,-0.681L0.276,-0L0.206,-0ZM-0.01,-0.645L-0.01,-0.71L0.491,-0.71L0.491,-0.645L-0.01,-0.645Z" style="fill:rgb(30,30,30);fill-rule:nonzero;"/>
                </g>
                <g transform="matrix(17.3333,0,0,17.3333,179.215,0)">
                    <rect x="0.073" y="-0.08" width="0.08" height="0.08" style="fill:rgb(30,30,30);fill-rule:nonzero;"/>
                </g>
            </g>
        </g>
    </g>
</svg>
